<?xml version="1.0" encoding="UTF-8" standalone="no"?>
<svg width="24px" height="24px" viewBox="0 0 24 24" version="1.1" xmlns="http://www.w3.org/2000/svg" xmlns:xlink="http://www.w3.org/1999/xlink">
    <!-- Generator: sketchtool 39.1 (31720) - http://www.bohemiancoding.com/sketch -->
    <title>48B4862B-2392-4F7D-BAA9-029F6D74925D</title>
    <desc>Created with sketchtool.</desc>
    <defs></defs>
    <g id="Symbols" stroke="none" stroke-width="1" fill="none" fill-rule="evenodd" stroke-linecap="round">
        <g id="ic-apoio-audio" stroke="#263238">
            <g>
                <path d="M2.5,9.00473881 C2.5,8.17369451 3.1639905,7.5 3.99843484,7.5 L7,7.5 L12.8910618,3.17988799 C13.7796538,2.52825385 14.5,2.89821238 14.5,3.99079514 L14.5,20.0092049 C14.5,21.1086907 13.8211972,21.4117042 12.9822631,20.684628 L7,15.5 L3.99843484,15.5 C3.17087213,15.5 2.5,14.8316845 2.5,13.9952612 L2.5,9.00473881 Z" id="Rectangle" stroke-linejoin="round" fill="#FFFFFF"></path>
                <path d="M4.5,9.5 L4.5,13.5" id="Line"></path>
                <path d="M17.5,18.5 C20.0305384,17.1386388 21.5015872,14.7403167 21.5015872,11.9984128 C21.5015872,9.22147788 19.9927095,6.79696021 17.5,5.5" id="Arc" stroke-linejoin="round"></path>
                <path d="M16.5,14.5634668 C17.4485755,14.0398664 18,13.1174348 18,12.0628564 C18,10.9948045 17.4343953,10.0622977 16.5,9.56346682" id="Arc" stroke-linejoin="round"></path>
            </g>
        </g>
    </g>
</svg>